<?xml version="1.0" standalone="no"?>
<!DOCTYPE svg PUBLIC "-//W3C//DTD SVG 20010904//EN"
 "http://www.w3.org/TR/2001/REC-SVG-20010904/DTD/svg10.dtd">
<svg version="1.0" xmlns="http://www.w3.org/2000/svg"
 width="700.000000pt" height="700.000000pt" viewBox="0 0 700.000000 700.000000"
 preserveAspectRatio="xMidYMid meet">
<metadata>
Created by potrace 1.14, written by Peter Selinger 2001-2017
</metadata>
<g transform="translate(0.000000,700.000000) scale(0.100000,-0.100000)"
fill="#000000" stroke="none">
<path d="M5300 5639 c-44 -7 -164 -38 -463 -120 -82 -22 -158 -42 -169 -44
-11 -3 -44 -11 -72 -19 -28 -8 -94 -26 -146 -40 -52 -14 -122 -32 -155 -41
-33 -9 -67 -18 -75 -20 -8 -2 -64 -17 -125 -33 -60 -17 -255 -69 -433 -117
l-323 -86 -1231 0 c-1335 -1 -1284 1 -1389 -55 -41 -23 -79 -56 -142 -125 -24
-25 -54 -91 -70 -152 -22 -84 -23 -2530 -1 -2615 30 -114 107 -218 205 -275
82 -48 154 -60 372 -60 108 0 197 -2 197 -5 0 -27 66 -245 86 -285 33 -63 129
-160 186 -186 134 -60 217 -61 433 -3 83 22 260 70 395 106 135 37 306 82 380
102 74 19 158 42 185 50 28 8 136 37 240 65 225 59 302 80 455 122 l115 31
800 2 c440 0 814 4 831 7 160 34 288 148 338 303 9 28 18 87 19 132 1 44 5 83
8 86 3 3 90 28 193 56 214 57 266 80 341 153 53 51 109 150 121 214 20 104 13
145 -95 548 -12 44 -51 190 -87 325 -37 135 -77 286 -91 335 -14 50 -27 98
-29 108 -2 10 -6 27 -9 37 -3 10 -7 27 -10 37 -2 10 -13 52 -25 93 -11 41 -23
83 -25 93 -2 10 -14 52 -25 95 -26 93 -39 143 -79 292 -164 625 -178 667 -244
741 -99 112 -248 169 -387 148z"/>
</g>
</svg>
